{
	"patcher" : 	{
		"fileversion" : 1,
		"appversion" : 		{
			"major" : 8,
			"minor" : 1,
			"revision" : 10,
			"architecture" : "x64",
			"modernui" : 1
		}
,
		"classnamespace" : "box",
		"rect" : [ 754.0, 78.0, 652.0, 784.0 ],
		"bglocked" : 0,
		"openinpresentation" : 0,
		"default_fontsize" : 12.0,
		"default_fontface" : 0,
		"default_fontname" : "Arial",
		"gridonopen" : 1,
		"gridsize" : [ 15.0, 15.0 ],
		"gridsnaponopen" : 1,
		"objectsnaponopen" : 1,
		"statusbarvisible" : 2,
		"toolbarvisible" : 1,
		"lefttoolbarpinned" : 0,
		"toptoolbarpinned" : 0,
		"righttoolbarpinned" : 0,
		"bottomtoolbarpinned" : 0,
		"toolbars_unpinned_last_save" : 0,
		"tallnewobj" : 0,
		"boxanimatetime" : 200,
		"enablehscroll" : 1,
		"enablevscroll" : 1,
		"devicewidth" : 0.0,
		"description" : "",
		"digest" : "",
		"tags" : "",
		"style" : "",
		"subpatcher_template" : "",
		"assistshowspatchername" : 0,
		"boxes" : [ 			{
				"box" : 				{
					"id" : "obj-11",
					"maxclass" : "newobj",
					"numinlets" : 1,
					"numoutlets" : 1,
					"outlettype" : [ "" ],
					"patching_rect" : [ 45.0, 285.0, 19.0, 22.0 ],
					"text" : "t l"
				}

			}
, 			{
				"box" : 				{
					"id" : "obj-6",
					"maxclass" : "newobj",
					"numinlets" : 3,
					"numoutlets" : 3,
					"outlettype" : [ "", "", "" ],
					"patching_rect" : [ 45.0, 240.0, 198.0, 22.0 ],
					"text" : "routepass multichannelsignal signal"
				}

			}
, 			{
				"box" : 				{
					"fontface" : 1,
					"fontsize" : 12.0,
					"id" : "obj-8",
					"linecount" : 2,
					"maxclass" : "comment",
					"numinlets" : 1,
					"numoutlets" : 0,
					"patching_rect" : [ 45.0, 83.0, 435.0, 33.0 ],
					"text" : "Timo Hoogland (c) 2019, www.timohoogland.com\nMIT License"
				}

			}
, 			{
				"box" : 				{
					"id" : "obj-88",
					"linecount" : 4,
					"maxclass" : "comment",
					"numinlets" : 1,
					"numoutlets" : 0,
					"patching_rect" : [ 45.0, 118.0, 435.0, 60.0 ],
					"text" : "Same as th.stof~, but for multichannelsignals. Convert a number from scala scale-format to the corresponding frequency based on the set tune and center value. Use this object in combination with the th.scala to load your desired .scl file.",
					"textcolor" : [ 0.32549, 0.345098, 0.372549, 1.0 ]
				}

			}
, 			{
				"box" : 				{
					"fontface" : 0,
					"fontname" : "Arial",
					"fontsize" : 40.0,
					"id" : "obj-10",
					"maxclass" : "comment",
					"numinlets" : 1,
					"numoutlets" : 0,
					"patching_rect" : [ 45.0, 30.0, 435.0, 51.0 ],
					"text" : "mc.th.stof~",
					"textcolor" : [ 0.239216, 0.254902, 0.278431, 1.0 ]
				}

			}
, 			{
				"box" : 				{
					"id" : "obj-9",
					"maxclass" : "message",
					"numinlets" : 2,
					"numoutlets" : 1,
					"outlettype" : [ "" ],
					"patching_rect" : [ 178.5, 435.0, 95.0, 22.0 ],
					"text" : "#0_sclDefault"
				}

			}
, 			{
				"box" : 				{
					"id" : "obj-4",
					"maxclass" : "newobj",
					"numinlets" : 1,
					"numoutlets" : 2,
					"outlettype" : [ "bang", "bang" ],
					"patching_rect" : [ 286.5, 315.0, 32.0, 22.0 ],
					"text" : "t b b"
				}

			}
, 			{
				"box" : 				{
					"id" : "obj-29",
					"maxclass" : "newobj",
					"numinlets" : 1,
					"numoutlets" : 1,
					"outlettype" : [ "list" ],
					"patching_rect" : [ 299.5, 540.0, 66.0, 22.0 ],
					"text" : "listfunnel 0"
				}

			}
, 			{
				"box" : 				{
					"id" : "obj-28",
					"maxclass" : "newobj",
					"numinlets" : 2,
					"numoutlets" : 2,
					"outlettype" : [ "", "" ],
					"patching_rect" : [ 396.5, 465.0, 55.0, 22.0 ],
					"text" : "zl.slice 1"
				}

			}
, 			{
				"box" : 				{
					"id" : "obj-27",
					"maxclass" : "newobj",
					"numinlets" : 1,
					"numoutlets" : 3,
					"outlettype" : [ "bang", "", "clear" ],
					"patching_rect" : [ 299.5, 375.0, 57.0, 22.0 ],
					"text" : "t b l clear"
				}

			}
, 			{
				"box" : 				{
					"id" : "obj-26",
					"maxclass" : "newobj",
					"numinlets" : 2,
					"numoutlets" : 2,
					"outlettype" : [ "", "" ],
					"patching_rect" : [ 299.5, 510.0, 75.0, 22.0 ],
					"text" : "zl 512 group"
				}

			}
, 			{
				"box" : 				{
					"id" : "obj-45",
					"maxclass" : "newobj",
					"numinlets" : 3,
					"numoutlets" : 1,
					"outlettype" : [ "float" ],
					"patching_rect" : [ 299.5, 570.0, 131.0, 22.0 ],
					"text" : "peek~ #0_sclDefault"
				}

			}
, 			{
				"box" : 				{
					"id" : "obj-39",
					"maxclass" : "newobj",
					"numinlets" : 1,
					"numoutlets" : 2,
					"outlettype" : [ "float", "bang" ],
					"patching_rect" : [ 337.5, 608.0, 210.0, 22.0 ],
					"text" : "buffer~ #0_sclDefault @samps 512"
				}

			}
, 			{
				"box" : 				{
					"id" : "obj-38",
					"maxclass" : "newobj",
					"numinlets" : 2,
					"numoutlets" : 2,
					"outlettype" : [ "", "" ],
					"patching_rect" : [ 318.5, 435.0, 97.0, 22.0 ],
					"text" : "route description"
				}

			}
, 			{
				"box" : 				{
					"id" : "obj-19",
					"maxclass" : "newobj",
					"numinlets" : 1,
					"numoutlets" : 1,
					"outlettype" : [ "" ],
					"patching_rect" : [ 318.5, 405.0, 47.0, 22.0 ],
					"text" : "dict.iter"
				}

			}
, 			{
				"box" : 				{
					"id" : "obj-7",
					"maxclass" : "message",
					"numinlets" : 2,
					"numoutlets" : 1,
					"outlettype" : [ "" ],
					"patching_rect" : [ 178.5, 345.0, 29.5, 22.0 ],
					"text" : "$1"
				}

			}
, 			{
				"box" : 				{
					"id" : "obj-1",
					"maxclass" : "newobj",
					"numinlets" : 1,
					"numoutlets" : 1,
					"outlettype" : [ "" ],
					"patching_rect" : [ 97.5, 390.0, 91.0, 22.0 ],
					"text" : "sprintf %s_data"
				}

			}
, 			{
				"box" : 				{
					"id" : "obj-46",
					"maxclass" : "newobj",
					"numinlets" : 1,
					"numoutlets" : 1,
					"outlettype" : [ "" ],
					"patching_rect" : [ 178.5, 480.0, 84.0, 22.0 ],
					"text" : "prepend scala"
				}

			}
, 			{
				"box" : 				{
					"data" : 					{
						"patcher" : 						{
							"fileversion" : 1,
							"appversion" : 							{
								"major" : 8,
								"minor" : 1,
								"revision" : 10,
								"architecture" : "x64",
								"modernui" : 1
							}
,
							"classnamespace" : "dsp.gen",
							"rect" : [ 101.0, 128.0, 616.0, 638.0 ],
							"bglocked" : 0,
							"openinpresentation" : 0,
							"default_fontsize" : 12.0,
							"default_fontface" : 0,
							"default_fontname" : "Arial",
							"gridonopen" : 1,
							"gridsize" : [ 15.0, 15.0 ],
							"gridsnaponopen" : 1,
							"objectsnaponopen" : 1,
							"statusbarvisible" : 2,
							"toolbarvisible" : 1,
							"lefttoolbarpinned" : 0,
							"toptoolbarpinned" : 0,
							"righttoolbarpinned" : 0,
							"bottomtoolbarpinned" : 0,
							"toolbars_unpinned_last_save" : 0,
							"tallnewobj" : 0,
							"boxanimatetime" : 200,
							"enablehscroll" : 1,
							"enablevscroll" : 1,
							"devicewidth" : 0.0,
							"description" : "",
							"digest" : "",
							"tags" : "",
							"style" : "",
							"subpatcher_template" : "",
							"assistshowspatchername" : 0,
							"boxes" : [ 								{
									"box" : 									{
										"maxclass" : "comment",
										"text" : "read offset",
										"numinlets" : 1,
										"patching_rect" : [ 226.0, 240.0, 69.0, 20.0 ],
										"numoutlets" : 0,
										"id" : "obj-18"
									}

								}
, 								{
									"box" : 									{
										"maxclass" : "newobj",
										"text" : "+ 4",
										"numinlets" : 1,
										"patching_rect" : [ 195.0, 240.0, 26.0, 22.0 ],
										"numoutlets" : 1,
										"outlettype" : [ "" ],
										"id" : "obj-2"
									}

								}
, 								{
									"box" : 									{
										"maxclass" : "comment",
										"text" : "cents",
										"numinlets" : 1,
										"patching_rect" : [ 214.0, 285.0, 47.0, 20.0 ],
										"numoutlets" : 0,
										"id" : "obj-33"
									}

								}
, 								{
									"box" : 									{
										"maxclass" : "comment",
										"text" : "tune",
										"numinlets" : 1,
										"patching_rect" : [ 128.5, 435.0, 47.0, 20.0 ],
										"numoutlets" : 0,
										"id" : "obj-32"
									}

								}
, 								{
									"box" : 									{
										"maxclass" : "comment",
										"text" : "range",
										"numinlets" : 1,
										"patching_rect" : [ 109.5, 240.0, 47.0, 20.0 ],
										"numoutlets" : 0,
										"id" : "obj-29"
									}

								}
, 								{
									"box" : 									{
										"maxclass" : "comment",
										"text" : "size",
										"numinlets" : 1,
										"patching_rect" : [ 238.0, 120.0, 47.0, 20.0 ],
										"numoutlets" : 0,
										"id" : "obj-24"
									}

								}
, 								{
									"box" : 									{
										"maxclass" : "comment",
										"text" : "center",
										"numinlets" : 1,
										"patching_rect" : [ 109.5, 45.0, 47.0, 20.0 ],
										"numoutlets" : 0,
										"id" : "obj-19"
									}

								}
, 								{
									"box" : 									{
										"maxclass" : "newobj",
										"text" : "3",
										"numinlets" : 0,
										"patching_rect" : [ 90.0, 240.0, 19.0, 22.0 ],
										"numoutlets" : 1,
										"outlettype" : [ "" ],
										"id" : "obj-16"
									}

								}
, 								{
									"box" : 									{
										"maxclass" : "newobj",
										"text" : "peek scala",
										"numinlets" : 2,
										"patching_rect" : [ 90.0, 270.0, 66.0, 22.0 ],
										"numoutlets" : 2,
										"outlettype" : [ "", "" ],
										"id" : "obj-17"
									}

								}
, 								{
									"box" : 									{
										"maxclass" : "newobj",
										"text" : "2",
										"numinlets" : 0,
										"patching_rect" : [ 90.0, 45.0, 19.0, 22.0 ],
										"numoutlets" : 1,
										"outlettype" : [ "" ],
										"id" : "obj-14"
									}

								}
, 								{
									"box" : 									{
										"maxclass" : "newobj",
										"text" : "peek scala",
										"numinlets" : 2,
										"patching_rect" : [ 90.0, 75.0, 66.0, 22.0 ],
										"numoutlets" : 2,
										"outlettype" : [ "", "" ],
										"id" : "obj-15"
									}

								}
, 								{
									"box" : 									{
										"maxclass" : "newobj",
										"text" : "1",
										"numinlets" : 0,
										"patching_rect" : [ 109.5, 435.0, 19.0, 22.0 ],
										"numoutlets" : 1,
										"outlettype" : [ "" ],
										"id" : "obj-8"
									}

								}
, 								{
									"box" : 									{
										"maxclass" : "newobj",
										"text" : "peek scala",
										"numinlets" : 2,
										"patching_rect" : [ 109.5, 465.0, 66.0, 22.0 ],
										"numoutlets" : 2,
										"outlettype" : [ "", "" ],
										"id" : "obj-9"
									}

								}
, 								{
									"box" : 									{
										"maxclass" : "newobj",
										"text" : "0",
										"numinlets" : 0,
										"patching_rect" : [ 221.0, 120.0, 19.0, 22.0 ],
										"numoutlets" : 1,
										"outlettype" : [ "" ],
										"id" : "obj-4"
									}

								}
, 								{
									"box" : 									{
										"maxclass" : "newobj",
										"text" : "peek scala",
										"numinlets" : 2,
										"patching_rect" : [ 221.0, 150.0, 66.0, 22.0 ],
										"numoutlets" : 2,
										"outlettype" : [ "", "" ],
										"id" : "obj-3"
									}

								}
, 								{
									"box" : 									{
										"maxclass" : "newobj",
										"text" : "wrap 0",
										"numinlets" : 2,
										"patching_rect" : [ 195.0, 210.0, 45.0, 22.0 ],
										"numoutlets" : 1,
										"outlettype" : [ "" ],
										"id" : "obj-1"
									}

								}
, 								{
									"box" : 									{
										"maxclass" : "newobj",
										"text" : "buffer scala",
										"numinlets" : 0,
										"patching_rect" : [ 195.0, 45.0, 70.0, 22.0 ],
										"numoutlets" : 2,
										"outlettype" : [ "", "" ],
										"id" : "obj-30"
									}

								}
, 								{
									"box" : 									{
										"maxclass" : "newobj",
										"text" : "peek scala",
										"numinlets" : 2,
										"patching_rect" : [ 195.0, 315.0, 66.0, 22.0 ],
										"numoutlets" : 2,
										"outlettype" : [ "", "" ],
										"id" : "obj-26"
									}

								}
, 								{
									"box" : 									{
										"maxclass" : "newobj",
										"text" : "+",
										"numinlets" : 2,
										"patching_rect" : [ 184.5, 360.0, 29.5, 22.0 ],
										"numoutlets" : 1,
										"outlettype" : [ "" ],
										"id" : "obj-25"
									}

								}
, 								{
									"box" : 									{
										"maxclass" : "newobj",
										"text" : "*",
										"numinlets" : 2,
										"patching_rect" : [ 45.0, 510.0, 29.5, 22.0 ],
										"numoutlets" : 1,
										"outlettype" : [ "" ],
										"id" : "obj-23"
									}

								}
, 								{
									"box" : 									{
										"maxclass" : "newobj",
										"text" : "2",
										"numinlets" : 0,
										"patching_rect" : [ 45.0, 390.0, 19.0, 22.0 ],
										"numoutlets" : 1,
										"outlettype" : [ "" ],
										"id" : "obj-22"
									}

								}
, 								{
									"box" : 									{
										"maxclass" : "newobj",
										"text" : "pow",
										"numinlets" : 2,
										"patching_rect" : [ 45.0, 435.0, 31.0, 22.0 ],
										"numoutlets" : 1,
										"outlettype" : [ "" ],
										"id" : "obj-21"
									}

								}
, 								{
									"box" : 									{
										"maxclass" : "newobj",
										"text" : "/ 1200",
										"numinlets" : 1,
										"patching_rect" : [ 184.5, 390.0, 42.0, 22.0 ],
										"numoutlets" : 1,
										"outlettype" : [ "" ],
										"id" : "obj-20"
									}

								}
, 								{
									"box" : 									{
										"maxclass" : "newobj",
										"text" : "*",
										"numinlets" : 2,
										"patching_rect" : [ 45.0, 315.0, 29.5, 22.0 ],
										"numoutlets" : 1,
										"outlettype" : [ "" ],
										"id" : "obj-12"
									}

								}
, 								{
									"box" : 									{
										"maxclass" : "newobj",
										"text" : "floor",
										"numinlets" : 1,
										"patching_rect" : [ 45.0, 270.0, 32.0, 22.0 ],
										"numoutlets" : 1,
										"outlettype" : [ "" ],
										"id" : "obj-11"
									}

								}
, 								{
									"box" : 									{
										"maxclass" : "newobj",
										"text" : "/",
										"numinlets" : 2,
										"patching_rect" : [ 45.0, 210.0, 29.5, 22.0 ],
										"numoutlets" : 1,
										"outlettype" : [ "" ],
										"id" : "obj-10"
									}

								}
, 								{
									"box" : 									{
										"maxclass" : "newobj",
										"text" : "-",
										"numinlets" : 2,
										"patching_rect" : [ 45.0, 120.0, 29.5, 22.0 ],
										"numoutlets" : 1,
										"outlettype" : [ "" ],
										"id" : "obj-7"
									}

								}
, 								{
									"box" : 									{
										"maxclass" : "newobj",
										"text" : "out 1",
										"numinlets" : 1,
										"patching_rect" : [ 45.0, 540.0, 35.0, 22.0 ],
										"numoutlets" : 0,
										"id" : "obj-6"
									}

								}
, 								{
									"box" : 									{
										"maxclass" : "newobj",
										"text" : "in 1",
										"numinlets" : 0,
										"patching_rect" : [ 45.0, 45.0, 28.0, 22.0 ],
										"numoutlets" : 1,
										"outlettype" : [ "" ],
										"id" : "obj-5"
									}

								}
 ],
							"lines" : [ 								{
									"patchline" : 									{
										"source" : [ "obj-9", 0 ],
										"destination" : [ "obj-23", 1 ]
									}

								}
, 								{
									"patchline" : 									{
										"source" : [ "obj-8", 0 ],
										"destination" : [ "obj-9", 0 ]
									}

								}
, 								{
									"patchline" : 									{
										"source" : [ "obj-7", 0 ],
										"destination" : [ "obj-10", 0 ],
										"order" : 1
									}

								}
, 								{
									"patchline" : 									{
										"source" : [ "obj-7", 0 ],
										"destination" : [ "obj-1", 0 ],
										"order" : 0
									}

								}
, 								{
									"patchline" : 									{
										"source" : [ "obj-5", 0 ],
										"destination" : [ "obj-7", 0 ]
									}

								}
, 								{
									"patchline" : 									{
										"source" : [ "obj-4", 0 ],
										"destination" : [ "obj-3", 0 ]
									}

								}
, 								{
									"patchline" : 									{
										"source" : [ "obj-3", 0 ],
										"destination" : [ "obj-10", 1 ],
										"order" : 1
									}

								}
, 								{
									"patchline" : 									{
										"source" : [ "obj-3", 0 ],
										"destination" : [ "obj-1", 1 ],
										"order" : 0
									}

								}
, 								{
									"patchline" : 									{
										"source" : [ "obj-26", 0 ],
										"destination" : [ "obj-25", 1 ]
									}

								}
, 								{
									"patchline" : 									{
										"source" : [ "obj-25", 0 ],
										"destination" : [ "obj-20", 0 ]
									}

								}
, 								{
									"patchline" : 									{
										"source" : [ "obj-23", 0 ],
										"destination" : [ "obj-6", 0 ]
									}

								}
, 								{
									"patchline" : 									{
										"source" : [ "obj-22", 0 ],
										"destination" : [ "obj-21", 0 ]
									}

								}
, 								{
									"patchline" : 									{
										"source" : [ "obj-21", 0 ],
										"destination" : [ "obj-23", 0 ]
									}

								}
, 								{
									"patchline" : 									{
										"source" : [ "obj-20", 0 ],
										"destination" : [ "obj-21", 1 ]
									}

								}
, 								{
									"patchline" : 									{
										"source" : [ "obj-2", 0 ],
										"destination" : [ "obj-26", 0 ]
									}

								}
, 								{
									"patchline" : 									{
										"source" : [ "obj-17", 0 ],
										"destination" : [ "obj-12", 1 ]
									}

								}
, 								{
									"patchline" : 									{
										"source" : [ "obj-16", 0 ],
										"destination" : [ "obj-17", 0 ]
									}

								}
, 								{
									"patchline" : 									{
										"source" : [ "obj-15", 0 ],
										"destination" : [ "obj-7", 1 ]
									}

								}
, 								{
									"patchline" : 									{
										"source" : [ "obj-14", 0 ],
										"destination" : [ "obj-15", 0 ]
									}

								}
, 								{
									"patchline" : 									{
										"source" : [ "obj-12", 0 ],
										"destination" : [ "obj-25", 0 ]
									}

								}
, 								{
									"patchline" : 									{
										"source" : [ "obj-11", 0 ],
										"destination" : [ "obj-12", 0 ]
									}

								}
, 								{
									"patchline" : 									{
										"source" : [ "obj-10", 0 ],
										"destination" : [ "obj-11", 0 ]
									}

								}
, 								{
									"patchline" : 									{
										"source" : [ "obj-1", 0 ],
										"destination" : [ "obj-2", 0 ]
									}

								}
 ]
						}

					}
,
					"id" : "obj-37",
					"maxclass" : "newobj",
					"numinlets" : 1,
					"numoutlets" : 1,
					"outlettype" : [ "multichannelsignal" ],
					"patching_rect" : [ 45.0, 570.0, 208.0, 22.0 ],
					"text" : "mc.gen~ @t toFrequency @chans #2",
					"wrapper_uniquekey" : "u140009653"
				}

			}
, 			{
				"box" : 				{
					"id" : "obj-18",
					"maxclass" : "newobj",
					"numinlets" : 1,
					"numoutlets" : 1,
					"outlettype" : [ "bang" ],
					"patching_rect" : [ 286.5, 285.0, 58.0, 22.0 ],
					"text" : "loadbang"
				}

			}
, 			{
				"box" : 				{
					"data" : 					{
						"description" : " 12-TET or Tone Equal Temperatement divides an octave into 12 equal steps",
						"size" : 12,
						"tune" : 440,
						"center" : 69,
						"range" : 1200,
						"cents" : [ 0, 100, 200, 300, 400, 500, 600, 700, 800, 900, 1000, 1100 ]
					}
,
					"id" : "obj-17",
					"maxclass" : "newobj",
					"numinlets" : 2,
					"numoutlets" : 4,
					"outlettype" : [ "dictionary", "", "", "" ],
					"patching_rect" : [ 299.5, 345.0, 165.0, 22.0 ],
					"saved_object_attributes" : 					{
						"embed" : 1,
						"parameter_enable" : 0,
						"parameter_mappable" : 0
					}
,
					"text" : "dict _scalaDefault @embed 1"
				}

			}
, 			{
				"box" : 				{
					"id" : "obj-12",
					"maxclass" : "newobj",
					"numinlets" : 1,
					"numoutlets" : 2,
					"outlettype" : [ "", "" ],
					"patching_rect" : [ 178.5, 315.0, 72.0, 22.0 ],
					"text" : "patcherargs"
				}

			}
, 			{
				"box" : 				{
					"id" : "obj-5",
					"maxclass" : "newobj",
					"numinlets" : 2,
					"numoutlets" : 2,
					"outlettype" : [ "", "" ],
					"patching_rect" : [ 97.5, 315.0, 67.0, 22.0 ],
					"text" : "route scala"
				}

			}
, 			{
				"box" : 				{
					"comment" : "(float/list) converted frequency",
					"id" : "obj-3",
					"index" : 1,
					"maxclass" : "outlet",
					"numinlets" : 1,
					"numoutlets" : 0,
					"patching_rect" : [ 45.0, 615.0, 30.0, 30.0 ]
				}

			}
, 			{
				"box" : 				{
					"comment" : "(int/float/list/messages) convert number to frequency from scala",
					"id" : "obj-2",
					"index" : 1,
					"maxclass" : "inlet",
					"numinlets" : 0,
					"numoutlets" : 1,
					"outlettype" : [ "multichannelsignal" ],
					"patching_rect" : [ 45.0, 195.0, 30.0, 30.0 ]
				}

			}
 ],
		"lines" : [ 			{
				"patchline" : 				{
					"destination" : [ "obj-46", 0 ],
					"source" : [ "obj-1", 0 ]
				}

			}
, 			{
				"patchline" : 				{
					"destination" : [ "obj-37", 0 ],
					"source" : [ "obj-11", 0 ]
				}

			}
, 			{
				"patchline" : 				{
					"destination" : [ "obj-7", 0 ],
					"source" : [ "obj-12", 0 ]
				}

			}
, 			{
				"patchline" : 				{
					"destination" : [ "obj-27", 0 ],
					"source" : [ "obj-17", 0 ]
				}

			}
, 			{
				"patchline" : 				{
					"destination" : [ "obj-4", 0 ],
					"source" : [ "obj-18", 0 ]
				}

			}
, 			{
				"patchline" : 				{
					"destination" : [ "obj-38", 0 ],
					"source" : [ "obj-19", 0 ]
				}

			}
, 			{
				"patchline" : 				{
					"destination" : [ "obj-6", 0 ],
					"source" : [ "obj-2", 0 ]
				}

			}
, 			{
				"patchline" : 				{
					"destination" : [ "obj-29", 0 ],
					"source" : [ "obj-26", 0 ]
				}

			}
, 			{
				"patchline" : 				{
					"destination" : [ "obj-19", 0 ],
					"source" : [ "obj-27", 1 ]
				}

			}
, 			{
				"patchline" : 				{
					"destination" : [ "obj-26", 0 ],
					"source" : [ "obj-27", 0 ]
				}

			}
, 			{
				"patchline" : 				{
					"destination" : [ "obj-39", 0 ],
					"source" : [ "obj-27", 2 ]
				}

			}
, 			{
				"patchline" : 				{
					"destination" : [ "obj-26", 0 ],
					"source" : [ "obj-28", 1 ]
				}

			}
, 			{
				"patchline" : 				{
					"destination" : [ "obj-45", 0 ],
					"source" : [ "obj-29", 0 ]
				}

			}
, 			{
				"patchline" : 				{
					"destination" : [ "obj-3", 0 ],
					"source" : [ "obj-37", 0 ]
				}

			}
, 			{
				"patchline" : 				{
					"destination" : [ "obj-28", 0 ],
					"source" : [ "obj-38", 1 ]
				}

			}
, 			{
				"patchline" : 				{
					"destination" : [ "obj-17", 0 ],
					"source" : [ "obj-4", 1 ]
				}

			}
, 			{
				"patchline" : 				{
					"destination" : [ "obj-9", 0 ],
					"source" : [ "obj-4", 0 ]
				}

			}
, 			{
				"patchline" : 				{
					"destination" : [ "obj-37", 0 ],
					"source" : [ "obj-46", 0 ]
				}

			}
, 			{
				"patchline" : 				{
					"destination" : [ "obj-1", 0 ],
					"source" : [ "obj-5", 0 ]
				}

			}
, 			{
				"patchline" : 				{
					"destination" : [ "obj-11", 0 ],
					"source" : [ "obj-6", 1 ]
				}

			}
, 			{
				"patchline" : 				{
					"destination" : [ "obj-11", 0 ],
					"source" : [ "obj-6", 0 ]
				}

			}
, 			{
				"patchline" : 				{
					"destination" : [ "obj-5", 0 ],
					"source" : [ "obj-6", 2 ]
				}

			}
, 			{
				"patchline" : 				{
					"destination" : [ "obj-1", 0 ],
					"source" : [ "obj-7", 0 ]
				}

			}
, 			{
				"patchline" : 				{
					"destination" : [ "obj-46", 0 ],
					"source" : [ "obj-9", 0 ]
				}

			}
 ],
		"styles" : [ 			{
				"name" : "AudioStatus_Menu",
				"default" : 				{
					"bgfillcolor" : 					{
						"type" : "color",
						"color" : [ 0.294118, 0.313726, 0.337255, 1 ],
						"color1" : [ 0.454902, 0.462745, 0.482353, 0.0 ],
						"color2" : [ 0.290196, 0.309804, 0.301961, 1.0 ],
						"angle" : 270.0,
						"proportion" : 0.39,
						"autogradient" : 0
					}

				}
,
				"parentstyle" : "",
				"multi" : 0
			}
, 			{
				"name" : "Audiomix",
				"default" : 				{
					"bgfillcolor" : 					{
						"type" : "gradient",
						"color1" : [ 0.376471, 0.384314, 0.4, 1.0 ],
						"color2" : [ 0.290196, 0.309804, 0.301961, 1.0 ],
						"color" : [ 0.290196, 0.309804, 0.301961, 1.0 ],
						"angle" : 270.0,
						"proportion" : 0.39
					}

				}
,
				"parentstyle" : "",
				"multi" : 0
			}
 ]
	}

}
